# xmcd
#
# Track frame offsets: 
#        150
#        12515
#        34967
#        51497
#        63635
#        71725
#        87272
#        111245
#        126687
#        145777
#        160817
#        179357
#
# Disc length: 2538 seconds
#
# Revision: 2
# Processed by: cddbd v1.5.2PL0 Copyright (c) Steve Scherf et al.
# Submitted via: ExactAudioCopy v0.95a5
#
DISCID=b909e80c
DTITLE=Buddy Greene - Rufus
DYEAR=2002
DGENRE=Bluegrass
TTITLE0=Sally Good'n
TTITLE1=Working On A Building
TTITLE2=Deep River Blues
TTITLE3=Cluck Ol' Hen
TTITLE4=Kinfolk In Carolina
TTITLE5=All My Loving
TTITLE6=Cryin' Holy
TTITLE7=The Little Beggar Man
TTITLE8=Walkin' Blues
TTITLE9=One Way Avenue
TTITLE10=Rock In A Weary Land
TTITLE11=Highway Heading South
EXTD=
EXTT0=
EXTT1=
EXTT2=
EXTT3=
EXTT4=
EXTT5=
EXTT6=
EXTT7=
EXTT8=
EXTT9=
EXTT10=
EXTT11=
PLAYORDER=
